<svg xmlns="http://www.w3.org/2000/svg" viewBox="0 0 29.1 15.34"><defs><style>.cls-1{fill:#fff;}</style></defs><title>auto</title><g id="Capa_2" data-name="Capa 2"><g id="Layer_1" data-name="Layer 1"><path class="cls-1" d="M3,12.43h.9a3.52,3.52,0,0,0,6.93,0h6.86a3.52,3.52,0,0,0,6.93,0h3.26a1.19,1.19,0,0,0,1.19-1.19V8a3,3,0,0,0-3-3H22.45C20.22,2.8,19.16,0,15.9,0H8.59A4.84,4.84,0,0,0,4.5,2.23L2.77,4.93H.61A.61.61,0,0,0,0,5.54V9.4A3,3,0,0,0,3,12.43Zm4.36,1.7a2.32,2.32,0,0,1-2.31-2.3h0a2.31,2.31,0,1,1,2.31,2.31Zm13.8,0a2.31,2.31,0,1,1,2.31-2.31h0A2.32,2.32,0,0,1,21.19,14.13Zm-.36-9.2H13.11V1.21H15.9C18.35,1.21,19.15,3.33,20.83,4.93Zm-15.31-2A3.64,3.64,0,0,1,8.59,1.21H11.9V4.93H4.21ZM1.21,6.14H26.07A1.83,1.83,0,0,1,27.89,8l0,3.26H24.65a3.52,3.52,0,0,0-6.93,0H10.86a3.52,3.52,0,0,0-6.93,0H3A1.83,1.83,0,0,1,1.21,9.4Z"/></g></g></svg>