<svg xmlns="http://www.w3.org/2000/svg" viewBox="0 0 15.7 25.16"><defs><style>.cls-1{fill:#fff;}</style></defs><title>gadgets</title><g id="Capa_2" data-name="Capa 2"><g id="Layer_1" data-name="Layer 1"><path class="cls-1" d="M1.68,25.16H14a1.68,1.68,0,0,0,1.68-1.68V1.69A1.69,1.69,0,0,0,14,0H1.68A1.69,1.69,0,0,0,0,1.69V23.48A1.68,1.68,0,0,0,1.68,25.16ZM.63,1.69a1.05,1.05,0,0,1,1-1.06H14a1.05,1.05,0,0,1,1.05,1.06V2.86H.63Zm0,1.8H15.07V20H.63Zm0,17.15H15.07v2.84A1,1,0,0,1,14,24.53H1.68a1,1,0,0,1-1-1.05Z"/><path class="cls-1" d="M7.85,23.93a1.3,1.3,0,1,0-1.29-1.29h0A1.29,1.29,0,0,0,7.85,23.93Zm0-2a.67.67,0,1,1-.67.67A.67.67,0,0,1,7.85,22Z"/></g></g></svg>