<svg xmlns="http://www.w3.org/2000/svg" viewBox="0 0 20.66 20.24"><defs><style>.cls-1{fill:#fff;}</style></defs><title>hogar</title><g id="Capa_2" data-name="Capa 2"><g id="Layer_1" data-name="Layer 1"><path class="cls-1" d="M20.45,8.42,10.72.14a.56.56,0,0,0-.75,0L.2,8.46a.57.57,0,0,0-.06.81.56.56,0,0,0,.44.21A.62.62,0,0,0,1,9.34L1,9.27V19.66a.58.58,0,0,0,.58.58H19a.58.58,0,0,0,.58-.58V9.21l.11.09a.58.58,0,0,0,.82-.06A.58.58,0,0,0,20.45,8.42ZM12.63,19H8V12.28h4.64Zm5.8,0H13.79V11.7a.58.58,0,0,0-.58-.58H7.41a.58.58,0,0,0-.58.58v7.38H2.19V8.28l8.16-6.94,8.08,6.88Z"/></g></g></svg>