<svg xmlns="http://www.w3.org/2000/svg" viewBox="0 0 285.8 195.64"><defs><style>.cls-1{fill:none;stroke:#fff;stroke-linejoin:round;stroke-width:15px;}</style></defs><title>Recurso 1</title><g id="Capa_2" data-name="Capa 2"><g id="Layer_1" data-name="Layer 1"><g id="fyTfw9.tif"><path class="cls-1" d="M219.57,72.34c2-.44,3-2.15,4.19-3.39q24.78-24.71,49.52-49.44c1.12-1.12,2.13-3.27,3.85-2.64s1,2.92,1,4.47q.06,76.48,0,153c0,1.55.82,3.81-1,4.48s-2.74-1.52-3.86-2.64q-24.78-24.69-49.46-49.49c-1.25-1.25-2-3-3.17-4.71-2.38,3-1.78,4.91-1.78,6.65q-.09,19.74,0,39.48a29.51,29.51,0,0,1-1.19,8.88c-2.16,6.87-7.67,11.15-14.87,11.16q-90.21.08-180.43,0c-8.81,0-14.78-5.92-14.79-14.82q-.13-75.46,0-150.94c0-8.84,6-14.79,14.8-14.8q90.23-.09,180.44,0c7.58,0,13.31,4.65,15.11,12.12a37,37,0,0,1,.88,8.41c.09,13,0,26,.08,39C218.87,68.79,218.27,70.68,219.57,72.34Z"/></g></g></g></svg>