<svg xmlns="http://www.w3.org/2000/svg" viewBox="0 0 23.2 22.89"><defs><style>.cls-1{fill:#fff;}</style></defs><title>viajes</title><g id="Capa_2" data-name="Capa 2"><g id="Layer_1" data-name="Layer 1"><path class="cls-1" d="M22.92.58,22.83.47l-.1-.11L22.62.28c-1.15-.69-3.3-.05-4.78,1.44L15.67,3.88,5.83,3.23h0A1.52,1.52,0,0,0,4.2,4.37c-.14.68.22,1.69,1.67,2.35l4.7,2.35a39.44,39.44,0,0,0-2.94,3.82l-2.73.3a.6.6,0,0,0-.53.66l.17,1.52a.59.59,0,0,0,.51.52l2,.29.28,2a.6.6,0,0,0,.53.51l1.52.17a.61.61,0,0,0,.43-.13.54.54,0,0,0,.22-.4l.31-2.74a39,39,0,0,0,3.82-2.93l2.35,4.7A2.42,2.42,0,0,0,18.54,19l.28,0A1.53,1.53,0,0,0,20,17.42v-.05l-.66-9.85,2.17-2.16C23,3.87,23.61,1.73,22.92.58ZM18.28,6.87a.57.57,0,0,0-.17.46l.67,10.09c0,.18-.06.38-.2.41s-.66-.19-1-1v0l-2.7-5.39a.6.6,0,0,0-.42-.32h-.11a.59.59,0,0,0-.4.15,40,40,0,0,1-4.46,3.45.57.57,0,0,0-.3.45l-.28,2.45-.46-.06-.27-1.9a.61.61,0,0,0-.2-.37.64.64,0,0,0-.37-.2l-1.91-.27,0-.47L8.06,14a.58.58,0,0,0,.46-.3A39.39,39.39,0,0,1,12,9.27a.58.58,0,0,0,.13-.51.57.57,0,0,0-.31-.41l-5.4-2.7h0c-.81-.36-1-.82-1-1s.22-.19.41-.19l10.08.67a.6.6,0,0,0,.46-.17l2.36-2.36c1.19-1.19,2.67-1.55,3.25-1.3.25.59-.1,2.06-1.29,3.25Z"/><path class="cls-1" d="M5.43,10.55a.59.59,0,0,0-.84-.84L.17,14.12A.6.6,0,1,0,1,15Z"/><path class="cls-1" d="M12.45,18.05,8.64,21.87a.6.6,0,0,0,.42,1,.59.59,0,0,0,.42-.18l3.81-3.81a.6.6,0,0,0-.84-.85Z"/><path class="cls-1" d="M5.06,17.34,1.13,21.27a.61.61,0,0,0,0,.85.6.6,0,0,0,.84,0L5.9,18.18a.58.58,0,0,0,0-.84A.6.6,0,0,0,5.06,17.34Z"/></g></g></svg>